<?xml version="1.0" encoding="utf-8"?>
<!-- Generator: Adobe Illustrator 23.1.1, SVG Export Plug-In . SVG Version: 6.00 Build 0)  -->
<svg version="1.1" id="Layer_1" xmlns="http://www.w3.org/2000/svg" xmlns:xlink="http://www.w3.org/1999/xlink" x="0px" y="0px"
	 viewBox="0 0 48 48" style="enable-background:new 0 0 48 48;" xml:space="preserve">
<style type="text/css">
	.st0{fill:#3D84B8;}
	.st1{fill:#F4F4F4;}
</style>
<path class="st0" d="M0,24C0,10.7,10.7,0,24,0s24,10.7,24,24S37.3,48,24,48S0,37.3,0,24z"/>
<path class="st1" d="M19.2,38.4c2.7,0,4.8-2.1,4.8-4.8v-4.8h-4.8c-2.7,0-4.8,2.1-4.8,4.8C14.4,36.3,16.5,38.4,19.2,38.4z"/>
<path class="st1" d="M14.4,24c0-2.7,2.1-4.8,4.8-4.8H24v9.6h-4.8C16.5,28.8,14.4,26.7,14.4,24z"/>
<path class="st1" d="M14.4,14.4c0-2.7,2.1-4.8,4.8-4.8H24v9.6h-4.8C16.5,19.2,14.4,17.1,14.4,14.4z"/>
<path class="st1" d="M24,9.6h4.8c2.7,0,4.8,2.1,4.8,4.8c0,2.7-2.1,4.8-4.8,4.8H24V9.6z"/>
<path class="st1" d="M33.6,24c0,2.7-2.1,4.8-4.8,4.8S24,26.7,24,24c0-2.7,2.1-4.8,4.8-4.8S33.6,21.3,33.6,24z"/>
</svg>
