<?xml version="1.0" encoding="utf-8"?>
<!-- Generator: Adobe Illustrator 23.1.1, SVG Export Plug-In . SVG Version: 6.00 Build 0)  -->
<svg version="1.1" id="Layer_1" xmlns="http://www.w3.org/2000/svg" xmlns:xlink="http://www.w3.org/1999/xlink" x="0px" y="0px"
	 viewBox="0 0 48 48" style="enable-background:new 0 0 48 48;" xml:space="preserve">
<style type="text/css">
	.st0{fill:#3D84B8;}
	.st1{fill:#FFFFFF;}
</style>
<path class="st0" d="M7,41V7c0-2.2,1.8-4,4-4h26c2.2,0,4,1.8,4,4v34c0,2.2-1.8,4-4,4H11C8.8,45,7,43.2,7,41z"/>
<path class="st1" d="M28.3,39.2V22.5c0,0,1.1-4-13.4,1.6c0,0.1,0-15.4,0-15.4l4.7,0v9.9c0,0,13.2-5.2,13.2,4v16.6L28.3,39.2z
	 M31,14.7h-5c1.8-2.2,3.4-6,3.4-6h5.2C34.6,8.8,33.7,11.2,31,14.7z M15,39.2v-9.5l4.7,4.7L15,39.2z"/>
</svg>
