<?xml version="1.0" encoding="utf-8"?>
<!-- Generator: Adobe Illustrator 23.1.1, SVG Export Plug-In . SVG Version: 6.00 Build 0)  -->
<svg version="1.1" id="Layer_1" xmlns="http://www.w3.org/2000/svg" xmlns:xlink="http://www.w3.org/1999/xlink" x="0px" y="0px"
	 viewBox="0 0 28 28" style="enable-background:new 0 0 28 28;" xml:space="preserve">
<style type="text/css">
	.st0{fill:#3D84B8;}
</style>
<path class="st0" d="M24.4,2.9c2.9,3.1,3.1,18.7-2.3,21.7S1.3,27.7,1.2,19S0.2,2.7,8.3,2S21.5-0.2,24.4,2.9z"/>
<path d="M25.5,26h-23C2.2,26,2,25.8,2,25.5v-23C2,2.2,2.2,2,2.5,2h23C25.8,2,26,2.2,26,2.5v23C26,25.8,25.8,26,25.5,26z M3,25h22V3
	H3V25z M11.8,24.2c-0.8,0-1.6-0.2-2.2-0.6C9,23.3,8.4,22.7,8.1,22c-0.1-0.2,0-0.5,0.2-0.6l1.7-1.1c0.1,0,0.2-0.1,0.3-0.1
	c0.3,0,0.4,0.2,0.5,0.4c0.2,0.4,0.4,0.6,0.6,0.7c0,0,0.1,0,0.3,0c0.2,0,0.4,0,0.5-0.3c0.1-0.2,0.1-1.1,0.1-1.7l0-0.7l0-5.6
	c0-0.3,0.2-0.5,0.5-0.5H15c0.1,0,0.3,0.1,0.4,0.2s0.1,0.2,0.1,0.4v2c0,1.3,0,2.6,0,3.9l0,0.5c0,1.1,0,2.1-0.4,2.9
	c-0.4,0.7-1.1,1.3-2,1.6C12.6,24.2,12.2,24.2,11.8,24.2z M9.2,21.9c0.2,0.4,0.5,0.7,0.9,0.9c0.7,0.4,1.7,0.6,2.7,0.3
	c0.4-0.1,1.1-0.4,1.4-1.1c0.4-0.7,0.4-1.5,0.3-2.5l0-0.5c0-1.3,0-2.6,0-3.9l0-1.5h-1.2l0,5.1l0,0.7c0,1.2,0,1.8-0.2,2.2
	c-0.4,0.8-1.3,0.9-2.1,0.7c-0.5-0.2-0.7-0.5-0.9-0.8L9.2,21.9z M10.3,20.7L9.9,21L10.3,20.7z M10.3,20.7L10.3,20.7L10.3,20.7z
	 M20.1,24.1c-1.3,0-2.7-0.5-3.5-1.3l-0.2-0.2c-0.3-0.3-0.5-0.5-0.7-1c-0.1-0.2,0-0.5,0.2-0.6l1.8-1c0.2-0.1,0.5-0.1,0.7,0.2
	c0.4,0.7,0.8,0.9,1.4,1.1c0.5,0.1,1,0,1.2-0.3c0,0,0.2-0.2,0.1-0.5c-0.1-0.3-0.7-0.6-1.4-0.8c-0.6-0.3-1.3-0.5-1.9-1
	c-0.7-0.5-1.2-1.4-1.4-2.4c-0.1-1,0.1-2,0.8-2.6c0.4-0.5,1.1-0.9,1.9-1.1l0.7-0.1c1.4,0,2.4,0.3,3.2,1.2c0.2,0.2,0.4,0.4,0.6,0.8
	c0.1,0.1,0.1,0.2,0.1,0.4s-0.1,0.2-0.2,0.3c-0.7,0.4-0.7,0.4-1.7,1.1c-0.1,0.1-0.3,0.1-0.4,0.1c-0.1,0-0.3-0.1-0.3-0.3
	c-0.1-0.3-0.4-0.5-0.6-0.6c-0.2-0.1-0.5,0-0.6,0.1c-0.1,0.1-0.2,0.2-0.2,0.2c0,0.1,0,0.1,0,0.4c0.1,0.2,0.6,0.4,1,0.6
	c0.1,0.1,0.3,0.1,0.4,0.2c2,0.8,2.9,1.8,3.2,3.1c0,0.1,0,0.1,0,0.2c0.1,0.7,0,1.3-0.1,1.6c-0.3,1.1-1.3,1.9-2.6,2.3
	C21,24.1,20.5,24.1,20.1,24.1z M16.8,21.6c0.1,0.1,0.2,0.2,0.3,0.3l0.2,0.2c0.8,0.8,2.5,1.2,3.8,0.8c0.6-0.1,1.6-0.5,1.9-1.6
	c0.1-0.2,0.2-0.7,0.1-1.4c0-0.1,0-0.1,0-0.2c-0.2-0.7-0.7-1.4-2.5-2.1c-0.2-0.1-0.3-0.1-0.4-0.2c-0.6-0.3-1.3-0.6-1.6-1.2
	c-0.1-0.4-0.2-0.7-0.1-1c0.1-0.3,0.3-0.6,0.6-0.8c0.4-0.2,0.9-0.3,1.4-0.1c0.4,0.1,0.7,0.3,0.9,0.6c0.4-0.3,0.6-0.4,0.8-0.5
	c-0.1-0.1-0.1-0.2-0.2-0.2c-0.6-0.6-1.3-0.9-2.4-0.8l-0.6,0.1c-0.5,0.1-1,0.4-1.3,0.8c-0.4,0.5-0.6,1.2-0.5,1.9
	c0.1,0.7,0.5,1.3,1,1.7c0.5,0.4,1.1,0.6,1.7,0.9c0.9,0.4,1.8,0.7,2,1.5c0,0,0,0,0,0c0.1,0.7-0.1,1.1-0.3,1.4
	c-0.4,0.5-1.2,0.7-2.1,0.6c-0.8-0.2-1.3-0.6-1.8-1.1L16.8,21.6z"/>
</svg>
