<?xml version="1.0" encoding="utf-8"?>
<!-- Generator: Adobe Illustrator 23.1.1, SVG Export Plug-In . SVG Version: 6.00 Build 0)  -->
<svg version="1.1" id="Layer_1" xmlns="http://www.w3.org/2000/svg" xmlns:xlink="http://www.w3.org/1999/xlink" x="0px" y="0px"
	 viewBox="0 0 24 24" style="enable-background:new 0 0 24 24;" xml:space="preserve">
<style type="text/css">
	.st0{fill:#3D84B8;}
</style>
<path class="st0" d="M6.5,19.6c-0.1,0-0.3,0-0.4,0V20c0.2,0.1,0.4,0.1,0.6,0.1c0.6,0,1.1-0.4,1.6-1.1c0.6-0.9,1.1-2.4,1.5-4.4H8.9
	c-0.2,1.2-0.4,2.4-0.8,3.4c0-0.2,0-0.6-0.2-1.1l-0.7-2.3H6.2l1,3.1c0.2,0.5,0.2,0.8,0.2,0.9c0,0.2-0.1,0.4-0.3,0.6
	C7,19.5,6.8,19.6,6.5,19.6L6.5,19.6z"/>
<polygon class="st0" points="19.5,13.3 19.5,18.7 22.1,18.7 22.1,18.1 20.4,18.1 20.4,13.3 "/>
<path class="st0" d="M1,14.4L1,14.4l1.4,4.3h0.7l1.4-4.3h0c0.1,1.4,0.2,2.8,0.3,4.3h0.9h0c0-1.6-0.2-3.5-0.4-5.4H4.2l-1.3,4h0
	l-1.3-4H0.4C0.2,15,0.1,16.8,0,18.7h0.8C0.9,17.1,0.9,15.7,1,14.4L1,14.4z"/>
<path class="st0" d="M18.7,15.9c0-1.8-0.7-2.7-2.2-2.7c-0.7,0-1.3,0.2-1.6,0.7c-0.4,0.5-0.6,1.2-0.6,2.2c0,1,0.2,1.7,0.6,2.1
	c0.3,0.4,0.9,0.6,1.6,0.6c0.3,0,0.5,0,0.7-0.1l1.3,0.8l0.4-0.6h0l-1-0.5c0.1-0.1,0.2-0.2,0.3-0.2C18.5,17.6,18.7,16.9,18.7,15.9
	L18.7,15.9z M16.5,18.1c-0.4,0-0.8-0.2-1-0.5l0,0c-0.2-0.4-0.3-0.9-0.3-1.7c0-1.4,0.4-2.1,1.3-2.1c0.4,0,0.8,0.2,1,0.5
	c0.2,0.4,0.3,0.9,0.3,1.7C17.7,17.4,17.3,18.1,16.5,18.1L16.5,18.1z M13.2,16.1c0,0-0.8-0.4-1.2-0.7c-0.4-0.2-0.7-0.5-0.7-0.8
	c0-0.2,0.1-0.4,0.2-0.5c0.2-0.1,0.4-0.2,0.7-0.2c0.3,0,0.7,0.1,1.1,0.2l0.2-0.5c-0.4-0.3-0.9-0.4-1.4-0.4c-0.5,0-0.9,0.1-1.2,0.4
	c-0.3,0.3-0.5,0.6-0.5,1.1c0,0.5,0.2,0.9,0.6,1.2c0,0,0.8,0.4,1.2,0.6c0.4,0.2,0.6,0.5,0.6,0.8c0,0.3-0.1,0.5-0.3,0.6
	c-0.2,0.1-0.5,0.2-0.8,0.2c-0.4,0-0.8-0.1-1.2-0.3l-0.2,0.5c0.5,0.3,1,0.5,1.6,0.5c0.6,0,1-0.1,1.4-0.4c0.3-0.3,0.5-0.7,0.5-1.1l0,0
	C13.8,16.7,13.6,16.4,13.2,16.1L13.2,16.1z"/>
<path class="st0" d="M9.5,16H8.7c-0.2,0.7-0.4,1.5-0.6,2.1c0-0.2,0-0.6-0.2-1.1l-0.3-1H6.7l0.6,1.8c0.2,0.5,0.2,0.8,0.2,0.9
	c0,0.2-0.1,0.4-0.3,0.6c-0.2,0.1-0.4,0.2-0.6,0.2c-0.1,0-0.3,0-0.4,0V20c0.2,0.1,0.4,0.1,0.6,0.1c0.6,0,1.1-0.4,1.6-1.1
	C8.8,18.4,9.2,17.4,9.5,16L9.5,16z"/>
<polygon class="st0" points="20.4,16 19.5,16 19.5,18.7 22.1,18.7 22.1,18.1 20.4,18.1 "/>
<path class="st0" d="M0.9,16H0.1C0.1,16.9,0,17.8,0,18.7h0.8C0.9,17.8,0.9,16.9,0.9,16L0.9,16z M4,16H3.3l-0.4,1.3h0L2.5,16H1.6
	l0.9,2.7h0.7L4,16L4,16z M5.6,16H4.7c0.1,0.9,0.1,1.8,0.1,2.7h0.9h0C5.8,17.9,5.7,17,5.6,16L5.6,16z"/>
<path class="st0" d="M18.7,16h-0.9c0,0,0,0,0,0.1c0,1.4-0.4,2.1-1.3,2.1c-0.4,0-0.8-0.2-1-0.5l0,0c-0.2-0.3-0.3-0.9-0.3-1.6h-0.9
	c0,0,0,0.1,0,0.1c0,1,0.2,1.7,0.6,2.1c0.3,0.4,0.9,0.6,1.6,0.6c0.3,0,0.5,0,0.7-0.1l1.3,0.8l0.4-0.6h0l-1-0.5
	c0.1-0.1,0.2-0.2,0.3-0.2C18.4,17.6,18.7,16.9,18.7,16L18.7,16z M13.1,16h-1.7c0.3,0.1,0.6,0.4,0.9,0.5c0.4,0.2,0.6,0.5,0.6,0.8
	c0,0.3-0.1,0.5-0.3,0.6c-0.2,0.1-0.5,0.2-0.8,0.2c-0.4,0-0.8-0.1-1.2-0.3l-0.2,0.5c0.5,0.3,1,0.5,1.6,0.5c0.6,0,1-0.1,1.4-0.4
	c0.3-0.3,0.5-0.7,0.5-1.1l0,0c0-0.5-0.2-0.8-0.6-1.1C13.2,16.1,13.2,16,13.1,16L13.1,16z"/>
<path class="st0" d="M16.4,5.8c-0.1,0-0.2,0-0.3,0v0h0c0.1,0.1,0.1,0.2,0.2,0.3c0.1,0.1,0.1,0.2,0.2,0.3l0,0
	c0.1-0.1,0.1-0.2,0.1-0.3l-0.1-0.1L16.4,5.8L16.4,5.8L16.4,5.8z"/>
<path class="st0" d="M23.7,13.2c-0.2-0.3-0.4-0.5-0.7-0.7c-0.2-0.1-0.7-0.3-0.8-0.6l0,0c0.1,0,0.3-0.1,0.5-0.1
	c0.2-0.1,0.4,0,0.7-0.1c0.1,0,0.2-0.1,0.3-0.1v-0.1c-0.1-0.1-0.2-0.3-0.3-0.4c-0.3-0.3-0.7-0.6-1.1-0.8c-0.2-0.1-0.5-0.2-0.7-0.3
	l-0.3-0.1c-0.1-0.1-0.2-0.3-0.3-0.5c-0.2-0.4-0.4-0.8-0.5-1.1c-0.1-0.3-0.2-0.5-0.3-0.7c-0.7-1.1-1.4-1.8-2.6-2.5
	c-0.2-0.1-0.5-0.2-0.9-0.3c-0.2,0-0.3,0-0.5,0c-0.1,0-0.2-0.2-0.3-0.2c-0.4-0.2-1.4-0.7-1.6-0.1c-0.2,0.4,0.3,0.8,0.4,1.1
	C14.8,5.7,14.9,5.9,15,6c0,0.1,0.1,0.2,0.1,0.3c0.1,0.3,0.2,0.6,0.3,0.9c0.1,0.1,0.2,0.3,0.2,0.4c0.1,0.1,0.1,0.1,0.2,0.2
	c-0.1,0.1-0.1,0.3-0.2,0.5c-0.2,0.7-0.1,1.7,0.2,2.2c0.1,0.2,0.4,0.5,0.7,0.4c0.3-0.1,0.2-0.5,0.3-0.8l0-0.2v0
	c0.1,0.2,0.2,0.4,0.3,0.5c0.2,0.3,0.6,0.7,0.9,0.9c0.2,0.1,0.3,0.3,0.5,0.4v0h0l-0.2-0.1c-0.1-0.1-0.3-0.3-0.4-0.4
	c-0.3-0.4-0.5-0.8-0.7-1.2c-0.1-0.2-0.2-0.4-0.3-0.6l-0.1-0.2c-0.1,0.1-0.2,0.3-0.3,0.4c-0.1,0.3-0.1,0.6-0.2,1l0,0
	c-0.2-0.1-0.3-0.3-0.4-0.5C15.8,9.7,15.8,9,16,8.5c0-0.1,0.2-0.6,0.2-0.7c0-0.1-0.2-0.2-0.2-0.3c-0.1-0.1-0.2-0.3-0.2-0.4
	c-0.2-0.4-0.2-0.8-0.4-1.1c-0.1-0.2-0.2-0.3-0.3-0.5c-0.1-0.2-0.3-0.3-0.4-0.5l0-0.3l0.1-0.1L15,4.6c0.2,0.1,0.5,0.2,0.7,0.3
	C15.8,5,15.9,5.1,16,5.1h0.1c0.2,0,0.5,0,0.7,0.1c0.4,0.1,0.7,0.3,1,0.5c0.9,0.5,1.6,1.3,2.1,2.2C19.9,8,19.9,8.2,20,8.3
	c0.1,0.3,0.3,0.6,0.5,1c0.1,0.3,0.3,0.6,0.5,0.9c0.1,0.1,0.5,0.2,0.7,0.3c0.1,0.1,0.3,0.1,0.5,0.2c0.2,0.1,0.5,0.3,0.7,0.4
	c0.1,0.1,0.4,0.2,0.5,0.4c-0.5,0-1,0-1.3,0.2c-0.1,0-0.3,0-0.3,0.2l0.1,0.2c0.1,0.1,0.2,0.3,0.3,0.4c0.1,0.1,0.3,0.2,0.4,0.3
	c0.3,0.2,0.6,0.2,0.8,0.4c0.1,0.1,0.3,0.2,0.4,0.3c0.1,0,0.1,0.1,0.2,0.2v0l-0.1-0.2L23.7,13.2L23.7,13.2z"/>
<path class="st0" d="M16.4,5.8L16.4,5.8c-0.1,0-0.2,0-0.3,0v0h0c0.1,0.1,0.1,0.2,0.2,0.3c0.1,0.1,0.1,0.2,0.2,0.3l0,0
	c0.1-0.1,0.1-0.2,0.1-0.3l-0.1-0.1L16.4,5.8L16.4,5.8z"/>
<path class="st0" d="M14.7,4.1c-0.2,0-0.4,0.1-0.5,0.3c-0.2,0.4,0.3,0.8,0.4,1.1C14.8,5.7,14.9,5.9,15,6c0,0.1,0.1,0.2,0.1,0.3
	c0.1,0.3,0.2,0.6,0.3,0.9c0.1,0.1,0.2,0.3,0.2,0.4c0.1,0.1,0.1,0.1,0.2,0.2c-0.1,0.1-0.1,0.3-0.2,0.5c-0.2,0.7-0.1,1.7,0.2,2.2
	c0.1,0.1,0.3,0.4,0.5,0.4c0,0,0.1,0,0.2,0c0.3-0.1,0.2-0.5,0.3-0.8l0-0.2v0c0.1,0.2,0.2,0.4,0.3,0.5c0.2,0.3,0.6,0.7,0.9,0.9
	c0.2,0.1,0.3,0.3,0.5,0.4v0h0l-0.2-0.1c-0.1-0.1-0.3-0.3-0.4-0.4c-0.3-0.4-0.5-0.8-0.7-1.2c-0.1-0.2-0.2-0.4-0.3-0.6l-0.1-0.2
	c-0.1,0.1-0.2,0.3-0.3,0.4c-0.1,0.3-0.1,0.6-0.2,1l0,0c-0.2-0.1-0.3-0.3-0.4-0.5C15.8,9.7,15.8,9,16,8.5c0-0.1,0.2-0.6,0.2-0.7
	c0-0.1-0.2-0.2-0.2-0.3c-0.1-0.1-0.2-0.3-0.2-0.4c-0.2-0.4-0.2-0.8-0.4-1.1c-0.1-0.2-0.2-0.3-0.3-0.5c-0.1-0.2-0.3-0.3-0.4-0.5
	l0-0.3l0.1-0.1L15,4.6c0.2,0.1,0.5,0.2,0.7,0.3C15.8,5,15.9,5.1,16,5.1h0.1c0.2,0,0.5,0,0.7,0.1c0.4,0.1,0.7,0.3,1,0.5
	c0.3,0.2,0.6,0.4,0.9,0.7V5.8c-0.3-0.3-0.7-0.5-1.1-0.7c-0.2-0.1-0.5-0.2-0.9-0.3c-0.2,0-0.3,0-0.5,0c-0.1,0-0.2-0.2-0.3-0.2
	C15.6,4.4,15.1,4.1,14.7,4.1L14.7,4.1z"/>
</svg>
