<?xml version="1.0" encoding="utf-8"?>
<!-- Generator: Adobe Illustrator 23.1.1, SVG Export Plug-In . SVG Version: 6.00 Build 0)  -->
<svg version="1.1" id="Layer_1" xmlns="http://www.w3.org/2000/svg" xmlns:xlink="http://www.w3.org/1999/xlink" x="0px" y="0px"
	 viewBox="0 0 128 128" style="enable-background:new 0 0 128 128;" xml:space="preserve">
<style type="text/css">
	.st0{fill-rule:evenodd;clip-rule:evenodd;fill:#3D84B8;}
</style>
<path class="st0" d="M109.7,14.7c-12.2-6-24.7-6.6-37.5-2.1C60.4,16.8,51,24.2,44,34.4C32.2,51.6,23.6,70.3,18.8,90.7
	c-2.5,10.4-4.1,21.5-3.6,32.2c0,0.9,0.2,1.1,0.3,3.1h60.4c-0.2-2-0.3-1.4-0.4-1.8c-3.2-8.1-5.7-16.7-7.4-25.2
	c-2.5-12.3-3.8-24.7-1.2-37.1c3.6-17.3,13.5-29.8,30.1-36.3c9.4-3.7,18.4-2.6,26.2,4.3c0.1,0.1,0.2,0,0.4,0.1l2.6-3.9
	C121.1,21.4,115.6,17.7,109.7,14.7L109.7,14.7z M3.3,94.4C2.9,98.3,2.4,102,2,105.8l11.1,1.3l2-11.9C11.1,95,7.3,94.7,3.3,94.4z
	 M25.2,60.2l-10.5-4.1l-3.4,9.6L22,69.1C23.1,66.1,24.1,63.3,25.2,60.2z M74.6,113.9c3.6,0.3,7.2,0.4,11.1,0.7c-1.4-3-2.7-5.7-4-8.3
	c-0.1-0.3-0.6-0.6-1-0.6c-3,0-6.1,0-9.3,0c0.7,2.6,1.4,5.1,2.1,7.4C73.6,113.4,74.2,113.8,74.6,113.9z M42.9,31.1l-8-5.3
	c-2.1,2.4-4.2,4.7-6.4,7.1l8.2,5.5L42.9,31.1z M68.3,84.5c0,0.3,0.3,0.8,0.6,1c2.9,1.3,5.8,2.5,8.9,3.9c-0.1-2.5-0.2-4.6-0.4-6.7
	c0-0.4-0.2-0.9-0.5-1.1c-2.6-1.5-5.3-2.8-8.2-4.4C68.5,79.9,68.4,82.2,68.3,84.5z M65.9,12.3l-5.4-6.2L53,10
	c1.9,2.3,3.6,4.4,5.5,6.6C58.4,16.7,65.9,12.3,65.9,12.3z M69.3,61.5c-0.2,0.4,0.1,1.2,0.4,1.5c2.2,2,4.4,3.8,6.9,6
	c0.6-2.4,1.1-4.5,1.6-6.7c0.1-0.4,0-1-0.3-1.2c-1.9-1.6-4-3.1-6-4.7C70.9,58.2,70.1,59.8,69.3,61.5z M81.8,9.1c2.8,0.1,5.6,0,8.5,0
	c-0.3-2-0.4-3.6-0.8-5.1c-0.1-0.4-0.8-1-1.2-1.1c-2.8-0.2-5.6-0.3-8.7-0.5c0.4,2.1,0.7,3.9,1.2,5.7C80.9,8.5,81.4,9,81.8,9.1z
	 M85.2,44.7c0.1-0.3,0.2-0.7,0-1c-1.4-2.1-2.8-4.2-4.3-6.5l-4.8,4.4l6.6,7.3C83.6,47.4,84.4,46.1,85.2,44.7z M90.3,30.2l2.8,5.3
	c4.4-2.4,4.9-3.3,3.3-6.8C96.4,28.6,90.3,30.2,90.3,30.2z M111.6,13.9c1.9,1.1,3.8,2.1,5.8,3.2l1.3-2.1c-2.4-1.8-4.8-3.5-7.4-5.4
	c-0.1,1.1-0.3,1.9-0.2,2.6C111.1,12.8,111.2,13.7,111.6,13.9z M109,30.6c2,0.2,5,0.4,7,0.6v-2.7c-2-0.4-5-0.9-7-1.3V30.6z"/>
</svg>
