<?xml version="1.0" encoding="utf-8"?>
<!-- Generator: Adobe Illustrator 23.1.1, SVG Export Plug-In . SVG Version: 6.00 Build 0)  -->
<svg version="1.1" id="Layer_1" xmlns="http://www.w3.org/2000/svg" xmlns:xlink="http://www.w3.org/1999/xlink" x="0px" y="0px"
	 viewBox="0 0 24 24" style="enable-background:new 0 0 24 24;" xml:space="preserve">
<style type="text/css">
	.st0{fill:#3D84B8;}
	.st1{fill:#356887;}
	.st2{fill:#2D6384;}
	.st3{fill:#336A8C;}
	.st4{fill:#316889;}
</style>
<path class="st0" d="M23.8,3.2L23.8,3.2c-0.4-1.7-1.6-2.7-3.6-3.1l0,0l0,0l-3.7,2l0,0l0,0l0,0l6.9,5.6l-8.8,0.6l0,0l2.4,9.4
	c2.8-2.9,5.3-6.1,6.5-9.9h0C23.9,6.4,24.2,4.7,23.8,3.2L23.8,3.2z M7.7,14.8L7.7,14.8L7.7,14.8L7.7,14.8L5,23.9c2.4-0.2,4.5-1,6.5-2
	l0,0c2-1.1,3.6-2.4,5-3.8c0.2-0.1,0.3-0.3,0.5-0.4L7.7,14.8L7.7,14.8z"/>
<path class="st0" d="M1.6,16.2L1.6,16.2L1.6,16.2L1.6,16.2L1.6,16.2l-1.6,3c0.1,4.7,3.5,4.8,5,4.8l-0.4-1
	C3.5,20.3,1.9,16.4,1.6,16.2L1.6,16.2z"/>
<polygon class="st0" points="13.6,0.1 16.5,2.2 20.2,0.1 "/>
<polygon class="st1" points="23.4,7.8 16.5,2.2 14.6,8.4 7.7,14.8 17,17.7 14.6,8.4 "/>
<path class="st2" d="M24,4.9L24,4.9L24,4.9c0,1-0.2,2-0.5,2.8c0,0,0,0,0,0c0,0,0,0,0,0c0,0,0,0,0,0c0,0,0,0,0,0l0,0h0l0,0
	c-0.2,0.5-0.3,1-0.5,1.4c0,0,0,0,0,0c0,0,0,0,0,0.1c0,0,0,0,0,0c0,0,0,0,0,0s0,0,0,0c0,0,0,0,0,0c0,0,0,0,0,0.1c0,0,0,0,0,0
	c0,0,0,0,0,0.1c0,0,0,0,0,0c0,0,0,0,0,0.1c0,0,0,0,0,0c0,0,0,0.1,0,0.1c0,0,0,0,0,0c0,0,0,0.1,0,0.1c0,0,0,0,0,0
	c-0.9,2.1-2.2,3.9-3.7,5.7c0,0,0,0,0,0c0,0,0,0-0.1,0.1c0,0,0,0,0,0c0,0,0,0,0,0.1c0,0,0,0,0,0c0,0,0,0,0,0c0,0,0,0,0,0.1
	c0,0,0,0,0,0c-0.4,0.5-0.9,1-1.4,1.5l5.3,5.3L24,4.9L24,4.9z"/>
<path class="st3" d="M5.1,5.1c3.6-3.5,8.2-5.6,9.9-3.8c1.8,1.8-0.1,6.1-3.7,9.6c-3.6,3.5-8.1,5.7-9.9,4C-0.3,13.1,1.6,8.7,5.1,5.1
	L5.1,5.1z"/>
<path class="st4" d="M16.7,16.6l0.3,1.1c0.1-0.1,0.3-0.3,0.4-0.4L16.7,16.6L16.7,16.6z M7.7,14.8L5,23.9c0.1,0,0.2,0,0.3,0
	c2.3-0.3,4.3-1,6.2-2l0,0c2-1.1,3.6-2.4,5-3.8c0.2-0.1,0.3-0.3,0.5-0.4l-0.6-0.2L7.7,14.8L7.7,14.8z M7.7,14.8L7.7,14.8L7.7,14.8
	L7.7,14.8L7.7,14.8z M1.6,16.2L1.6,16.2L1.6,16.2L1.6,16.2l-1.6,3c0.1,4.6,3.4,4.8,4.9,4.8l0,0L5,24l0,0l0,0l-0.4-1
	C3.5,20.3,1.9,16.4,1.6,16.2L1.6,16.2L1.6,16.2z"/>
<polygon class="st0" points="11.4,11.3 7.7,14.8 7.7,14.8 7.7,14.8 7.7,14.8 16.4,17.5 17,17.7 17,17.7 17,17.7 16.7,16.6 "/>
<path class="st0" d="M22.7,22.7L22.7,22.7L22.7,22.7L22.7,22.7L22.7,22.7z M17.4,17.3c-0.1,0.1-0.3,0.3-0.4,0.4l0,0l0,0l-0.3-0.1
	l0.3,0.1l0,0c-0.2,0.1-0.3,0.3-0.5,0.4c-1.4,1.4-3,2.7-5,3.8l0,0c-1.8,1-3.9,1.8-6.2,2c-0.1,0-0.2,0-0.3,0l0,0l0,0l0,0l-0.1,0l0,0
	l0,0l17.7-1.2v0l0,0l0,0l0-0.1l0-0.1L17.4,17.3L17.4,17.3z"/>
<path class="st0" d="M5.2,5.1C5.2,5.1,5.1,5.1,5.2,5.1c-3.6,3.6-5.4,8-3.7,9.8c0.4,0.4,1,0.6,1.7,0.6c2.1,0,5.3-1.8,8-4.4L5.2,5.1
	L5.2,5.1z"/>
<polygon class="st0" points="1.6,16.2 0.3,12.5 0,19.2 1.6,16.2 5,23.9 5,23.9 7.8,14.8 7.6,14.8 "/>
</svg>
